# xmcd
#
# Track frame offsets:
#	150
#	14787
#	29137
#	45400
#	58475
#	70450
#	79987
#	92700
#	105837
#	117262
#	132975
#	148037
#	160012
#	173150
#	185375
#	198037
#	211350
#	225562
#	235525
#	248450
#	259962
#	273062
#	287537
#	301375
#
# Disc length: 4142 seconds
#
# Revision: 2
# Processed by: cddbd v1.4PL0 Copyright (c) Steve Scherf et al.
# Submitted via: Gronk 1.4
#
DISCID=4f102c18
DTITLE=Kitty Kallen - If I Give My Heart To You - Honky Tonk Angel
DYEAR=1960
DGENRE=country
TTITLE0=Need Me
TTITLE1=Driftwood on the River
TTITLE2=Always in my Heart
TTITLE3=Never in a Million Years
TTITLE4=Because You're Mine
TTITLE5=Got a Date With an Angel
TTITLE6=If I Give My Heart To You
TTITLE7=Blues in my Heart
TTITLE8=That Old Feeling
TTITLE9=Vaya Con Dios
TTITLE10=Blue Doll
TTITLE11=Love is a Sacred Thing
TTITLE12=I'll Never Stand in Your Way
TTITLE13=Your Cheatin' Heart
TTITLE14=Be My Life's Companion
TTITLE15=It Wasn't God Who Made Honky Tonk Angels
TTITLE16=Raining In My Heart
TTITLE17=A Poor Man's Roses
TTITLE18=You Are My Sunshine
TTITLE19=Careless Hands
TTITLE20=I Love You Because
TTITLE21=Someday
TTITLE22=I Walked Alone Last Night
TTITLE23=Hey, Good Looking
EXTD=Collectibles Cd 6638
EXTT0=
EXTT1=
EXTT2=
EXTT3=
EXTT4=
EXTT5=
EXTT6=
EXTT7=
EXTT8=
EXTT9=
EXTT10=
EXTT11=
EXTT12=
EXTT13=
EXTT14=
EXTT15=
EXTT16=
EXTT17=
EXTT18=
EXTT19=
EXTT20=
EXTT21=
EXTT22=
EXTT23=
PLAYORDER=
